<svg xmlns="http://www.w3.org/2000/svg" version="1.1" xmlns:xlink="http://www.w3.org/1999/xlink" xmlns:svgjs="http://svgjs.dev/svgjs" viewBox="0 0 1422 800"><g stroke-width="2" stroke="#72a065" fill="none" stroke-linecap="round"><path d="M 0 352 Q 355.5 -100 711 400 Q 1066.5 900 1422 352" opacity="0.68"></path><path d="M 0 341 Q 355.5 -100 711 400 Q 1066.5 900 1422 341" opacity="0.54"></path><path d="M 0 330 Q 355.5 -100 711 400 Q 1066.5 900 1422 330" opacity="0.80"></path><path d="M 0 319 Q 355.5 -100 711 400 Q 1066.5 900 1422 319" opacity="0.24"></path><path d="M 0 308 Q 355.5 -100 711 400 Q 1066.5 900 1422 308" opacity="0.88"></path><path d="M 0 297 Q 355.5 -100 711 400 Q 1066.5 900 1422 297" opacity="0.62"></path><path d="M 0 286 Q 355.5 -100 711 400 Q 1066.5 900 1422 286" opacity="0.54"></path><path d="M 0 275 Q 355.5 -100 711 400 Q 1066.5 900 1422 275" opacity="0.72"></path><path d="M 0 264 Q 355.5 -100 711 400 Q 1066.5 900 1422 264" opacity="0.71"></path><path d="M 0 253 Q 355.5 -100 711 400 Q 1066.5 900 1422 253" opacity="0.62"></path><path d="M 0 242 Q 355.5 -100 711 400 Q 1066.5 900 1422 242" opacity="0.50"></path><path d="M 0 231 Q 355.5 -100 711 400 Q 1066.5 900 1422 231" opacity="0.90"></path><path d="M 0 220 Q 355.5 -100 711 400 Q 1066.5 900 1422 220" opacity="0.22"></path><path d="M 0 209 Q 355.5 -100 711 400 Q 1066.5 900 1422 209" opacity="0.22"></path><path d="M 0 198 Q 355.5 -100 711 400 Q 1066.5 900 1422 198" opacity="0.26"></path><path d="M 0 187 Q 355.5 -100 711 400 Q 1066.5 900 1422 187" opacity="0.23"></path><path d="M 0 176 Q 355.5 -100 711 400 Q 1066.5 900 1422 176" opacity="0.13"></path><path d="M 0 165 Q 355.5 -100 711 400 Q 1066.5 900 1422 165" opacity="0.16"></path><path d="M 0 154 Q 355.5 -100 711 400 Q 1066.5 900 1422 154" opacity="0.26"></path><path d="M 0 143 Q 355.5 -100 711 400 Q 1066.5 900 1422 143" opacity="0.75"></path><path d="M 0 132 Q 355.5 -100 711 400 Q 1066.5 900 1422 132" opacity="0.24"></path><path d="M 0 121 Q 355.5 -100 711 400 Q 1066.5 900 1422 121" opacity="0.68"></path><path d="M 0 110 Q 355.5 -100 711 400 Q 1066.5 900 1422 110" opacity="0.63"></path><path d="M 0 99 Q 355.5 -100 711 400 Q 1066.5 900 1422 99" opacity="0.47"></path><path d="M 0 88 Q 355.5 -100 711 400 Q 1066.5 900 1422 88" opacity="0.90"></path><path d="M 0 77 Q 355.5 -100 711 400 Q 1066.5 900 1422 77" opacity="0.23"></path><path d="M 0 66 Q 355.5 -100 711 400 Q 1066.5 900 1422 66" opacity="0.47"></path><path d="M 0 55 Q 355.5 -100 711 400 Q 1066.5 900 1422 55" opacity="0.62"></path><path d="M 0 44 Q 355.5 -100 711 400 Q 1066.5 900 1422 44" opacity="0.85"></path><path d="M 0 33 Q 355.5 -100 711 400 Q 1066.5 900 1422 33" opacity="0.26"></path><path d="M 0 22 Q 355.5 -100 711 400 Q 1066.5 900 1422 22" opacity="0.34"></path></g></svg>